<?xml version="1.0" standalone="no"?>
<!DOCTYPE svg PUBLIC "-//W3C//DTD SVG 20010904//EN"
 "http://www.w3.org/TR/2001/REC-SVG-20010904/DTD/svg10.dtd">
<svg version="1.0" xmlns="http://www.w3.org/2000/svg"
 width="24.000000pt" height="24.000000pt" viewBox="0 0 24.000000 24.000000"
 preserveAspectRatio="xMidYMid meet">

<g transform="translate(0.000000,24.000000) scale(0.100000,-0.100000)"
fill="#000000" stroke="none">
<path d="M51 173 c-7 -38 -14 -81 -17 -98 -5 -27 -1 -32 41 -54 l46 -24 42 23
c23 13 43 24 45 25 1 1 -3 35 -9 74 -11 68 -14 72 -35 67 -15 -4 -24 -1 -28
10 -3 9 -13 14 -21 10 -9 -3 -19 3 -25 14 -18 34 -28 22 -39 -47z m39 9 c-1
-23 -29 -72 -30 -51 0 33 13 79 21 73 5 -3 9 -13 9 -22z m43 -6 c3 -7 -10 -29
-30 -47 l-35 -34 23 48 c24 49 33 56 42 33z m47 -20 c0 -7 3 -34 6 -59 6 -45
6 -46 -30 -63 -34 -17 -38 -17 -73 0 l-36 17 59 60 c60 60 74 69 74 45z"/>
</g>
</svg>
