<?xml version="1.0" standalone="no"?>
<!DOCTYPE svg PUBLIC "-//W3C//DTD SVG 20010904//EN"
 "http://www.w3.org/TR/2001/REC-SVG-20010904/DTD/svg10.dtd">
<svg version="1.0" xmlns="http://www.w3.org/2000/svg"
 width="24.000000pt" height="24.000000pt" viewBox="0 0 24.000000 24.000000"
 preserveAspectRatio="xMidYMid meet">

<g transform="translate(0.000000,24.000000) scale(0.100000,-0.100000)"
fill="#000000" stroke="none">
<path d="M55 180 l-60 -60 63 -63 62 -62 62 62 63 63 -60 60 c-33 33 -62 60
-65 60 -3 0 -32 -27 -65 -60z m75 33 c-1 -18 -19 -35 -29 -28 -9 5 -9 10 0 21
12 15 29 19 29 7z m30 -39 c0 -16 -16 -19 -25 -4 -8 13 4 32 16 25 5 -4 9 -13
9 -21z m-60 -14 c0 -4 -7 -13 -16 -21 -13 -10 -17 -10 -24 1 -11 18 7 41 26
33 8 -3 14 -9 14 -13z m35 -10 c3 -5 4 -10 1 -10 -2 0 -12 -3 -20 -6 -12 -5
-15 -2 -10 10 7 18 20 21 29 6z m-90 -20 c3 -5 1 -10 -4 -10 -6 0 -11 5 -11
10 0 6 2 10 4 10 3 0 8 -4 11 -10z m161 -28 c-20 -20 -46 -9 -39 17 4 17 8 18
29 9 22 -10 23 -13 10 -26z m-56 13 c0 -8 -9 -15 -20 -15 -22 0 -27 15 -7 23
21 9 27 7 27 -8z m-50 -69 c0 -5 -9 -1 -20 9 -11 10 -17 22 -14 27 6 9 33 -20
34 -36z m36 30 c3 -8 4 -23 2 -33 -3 -14 -7 -12 -26 15 -23 32 -23 32 -2 32
11 0 23 -6 26 -14z"/>
</g>
</svg>
