<svg fill="#000000" xmlns="http://www.w3.org/2000/svg"  viewBox="0 0 24 24" width="24px" height="24px"><path d="M 5 3 C 3.896 3 3 3.895 3 5 L 3 19 C 3 20.105 3.896 21 5 21 L 19 21 C 20.104 21 21 20.105 21 19 L 21 5 C 21 3.895 20.104 3 19 3 L 5 3 z M 5 5 L 19 5 L 19 19 L 5 19 L 5 5 z M 7 8 L 7 16 L 8.6738281 16 L 8.6738281 13.115234 L 9.7890625 13.115234 C 10.999063 13.115234 12.301734 12.465469 12.302734 10.605469 C 12.302734 10.140469 12.023266 8 9.6972656 8 L 7 8 z M 8.6738281 9.3027344 L 9.7890625 9.3027344 C 10.441063 9.3027344 10.721703 9.9534687 10.720703 10.605469 C 10.720703 11.256469 10.533062 11.814453 9.7890625 11.814453 L 8.6738281 11.814453 L 8.6738281 9.3027344 z M 16.394531 9.8828125 C 15.769531 9.8828125 15.435547 10.431547 15.310547 10.685547 L 15.263672 10 L 13.699219 10 L 13.699219 16 L 15.363281 16 L 15.363281 12.150391 C 15.441281 11.954391 15.646203 11.552734 16.283203 11.552734 C 16.361203 11.552734 16.761937 11.591609 16.835938 11.599609 L 16.851562 9.9589844 C 16.796563 9.9359844 16.668531 9.8828125 16.394531 9.8828125 z"/></svg>